HIERARCHY
ROOT joint_Root
{
	OFFSET 0.0 0.0 0.0
	CHANNELS 6 Xposition Yposition Zposition Zrotation Xrotation Yrotation 
	JOINT Hips
	{
		OFFSET -0.726466 93.3139 -2.00062
		CHANNELS 6 Xposition Yposition Zposition Zrotation Xrotation Yrotation 
		JOINT Spine
		{
			OFFSET 15.7357 0.0 0.0
			CHANNELS 6 Xposition Yposition Zposition Zrotation Xrotation Yrotation 
			JOINT Chest
			{
				OFFSET 8.98455 -0.406207 0.0
				CHANNELS 6 Xposition Yposition Zposition Zrotation Xrotation Yrotation 
				JOINT Neck
				{
					OFFSET 16.3773 0.0 0.0
					CHANNELS 6 Xposition Yposition Zposition Zrotation Xrotation Yrotation 
					JOINT Head
					{
						OFFSET 6.45672 0.0 0.0
						CHANNELS 6 Xposition Yposition Zposition Zrotation Xrotation Yrotation 
						End Site
						{
							OFFSET 0.0 0.0 0.0
						}
					}
				}
				JOINT Shoulder_L
				{
					OFFSET 12.9942 -0.242716 4.98039
					CHANNELS 6 Xposition Yposition Zposition Zrotation Xrotation Yrotation 
					JOINT UpperArm_L
					{
						OFFSET 5.34809 0.0 0.0
						CHANNELS 6 Xposition Yposition Zposition Zrotation Xrotation Yrotation 
						JOINT LowerArm_L
						{
							OFFSET 24.3286 1.87007e-05 0.0
							CHANNELS 6 Xposition Yposition Zposition Zrotation Xrotation Yrotation 
							JOINT Hand_L
							{
								OFFSET 22.2916 0.0 0.0
								CHANNELS 6 Xposition Yposition Zposition Zrotation Xrotation Yrotation 
								End Site
								{
									OFFSET 0.0 0.0 0.0
								}
							}
						}
					}
				}
				JOINT Shoulder_R
				{
					OFFSET 12.9945 -0.242716 -4.98039
					CHANNELS 6 Xposition Yposition Zposition Zrotation Xrotation Yrotation 
					JOINT UpperArm_R
					{
						OFFSET -5.34813 0.0 0.0
						CHANNELS 6 Xposition Yposition Zposition Zrotation Xrotation Yrotation 
						JOINT LowerArm_R
						{
							OFFSET -24.3289 0.000322201 0.0
							CHANNELS 6 Xposition Yposition Zposition Zrotation Xrotation Yrotation 
							JOINT Hand_R
							{
								OFFSET -22.2915 -0.000108084 0.0
								CHANNELS 6 Xposition Yposition Zposition Zrotation Xrotation Yrotation 
								End Site
								{
									OFFSET 0.0 0.0 0.0
								}
							}
						}
					}
				}
			}
		}
		JOINT UpperLeg_L
		{
			OFFSET -2.19248 -6.46944 0.0
			CHANNELS 6 Xposition Yposition Zposition Zrotation Xrotation Yrotation 
			JOINT LowerLeg_L
			{
				OFFSET 39.0811 0.0 -1.23785e-05
				CHANNELS 6 Xposition Yposition Zposition Zrotation Xrotation Yrotation 
				JOINT Foot_L
				{
					OFFSET 40.9854 0.0 -1.26872e-05
					CHANNELS 6 Xposition Yposition Zposition Zrotation Xrotation Yrotation 
					JOINT Toes_L
					{
						OFFSET 11.7543 0.0 0.0
						CHANNELS 6 Xposition Yposition Zposition Zrotation Xrotation Yrotation 
						End Site
						{
							OFFSET 0.0 0.0 0.0
						}
					}
				}
			}
		}
		JOINT UpperLeg_R
		{
			OFFSET -2.19251 6.46944 0.0
			CHANNELS 6 Xposition Yposition Zposition Zrotation Xrotation Yrotation 
			JOINT LowerLeg_R
			{
				OFFSET -39.0811 -0.00228153 -0.0401928
				CHANNELS 6 Xposition Yposition Zposition Zrotation Xrotation Yrotation 
				JOINT Foot_R
				{
					OFFSET -40.9854 0.0 0.0
					CHANNELS 6 Xposition Yposition Zposition Zrotation Xrotation Yrotation 
					JOINT Toes_R
					{
						OFFSET -11.7543 0.0 0.0
						CHANNELS 6 Xposition Yposition Zposition Zrotation Xrotation Yrotation 
						End Site
						{
							OFFSET 0.0 0.0 0.0
						}
					}
				}
			}
		}
	}
}
MOTION
Frames:	7
Frame Time:	0.0333333
0.000000 0.000000 0.000000 0.000000 0.000000 -0.000000 -7.118380 91.140800 -26.971900 89.718000 -0.541824 2.844170 15.735700 0.000005 -0.000001 96.777000 81.083500 -96.104800 8.984550 -0.406207 -0.000000 9.935260 2.103990 1.160660 16.377300 -0.000001 -0.000001 5.817720 -2.065730 0.965094 6.456720 -0.000001 -0.000000 0.141254 -3.142610 -2.942860 12.994200 -0.242716 4.980390 -88.496100 -3.776360 -68.267200 5.348090 -0.000007 -0.000001 -71.346000 30.685500 0.871556 24.328600 0.000019 0.000005 4.638380 6.133700 -37.209900 22.291600 -0.000001 0.000005 4.534560 5.531010 -7.839600 12.994500 -0.242716 -4.980390 89.481100 1.344940 -68.901300 -5.348130 -0.000001 -0.000004 -53.166500 30.071800 -30.847300 -24.328900 0.000322 -0.000009 1.034800 1.465160 -35.267500 -22.291500 -0.000108 -0.000004 5.400530 5.515790 -7.183390 -2.192480 -6.469440 -0.000000 -179.527000 -12.384800 -24.789000 39.081100 -0.000007 -0.000012 0.021657 -0.025471 40.370100 40.985400 -0.000006 -0.000013 2.876000 -4.787920 -58.289200 11.754300 -0.000000 0.000003 -0.004021 -0.051663 -18.678300 -2.192510 6.469440 -0.000001 179.189000 11.342900 177.799000 -39.081100 -0.002282 -0.040193 0.028928 -0.047530 28.328200 -40.985400 0.000008 0.000006 6.088630 0.876542 -70.551400 -11.754300 -0.000006 -0.000006 -0.972878 -1.159200 -19.250000
0.000000 0.000000 0.000000 0.000000 0.000000 -0.000000 -6.985600 90.697400 -23.653300 89.280200 -2.691260 2.440250 15.735700 0.000005 -0.000001 100.654000 81.035300 -100.075000 8.984550 -0.406207 -0.000000 9.849720 3.305010 0.873913 16.377300 -0.000001 -0.000001 5.401120 -1.786810 0.817837 6.456720 -0.000001 -0.000000 -0.010483 -3.538040 -3.039640 12.994200 -0.242716 4.980390 -88.410500 -3.849740 -67.544900 5.348090 -0.000007 -0.000001 -71.839000 29.333200 3.586710 24.328600 0.000019 0.000005 4.749700 6.425040 -36.593700 22.291600 -0.000001 0.000005 4.323600 5.529490 -7.772420 12.994500 -0.242716 -4.980390 89.721900 0.741706 -69.450700 -5.348130 -0.000001 -0.000004 -50.729300 29.376000 -35.775300 -24.328900 0.000322 -0.000009 0.749300 1.009020 -36.641200 -22.291500 -0.000108 -0.000004 5.370760 5.513440 -7.084920 -2.192480 -6.469440 -0.000000 -178.901000 -12.527300 -24.988500 39.081100 -0.000007 -0.000012 0.010880 -0.020378 28.098500 40.985400 -0.000006 -0.000013 2.915500 -4.811360 -57.696700 11.754300 -0.000000 0.000003 -0.003866 -0.050043 -18.612300 -2.192510 6.469440 -0.000001 179.124000 9.766090 -179.830000 -39.081100 -0.002282 -0.040193 0.029129 -0.049785 27.413700 -40.985400 0.000008 0.000006 5.942760 1.292210 -72.391100 -11.754300 -0.000006 -0.000006 -0.940319 -1.121030 -19.273000
0.000000 0.000000 0.000000 0.000000 0.000000 -0.000000 -6.792580 89.879900 -20.067400 88.264300 -5.381700 2.197710 15.735700 0.000005 -0.000001 105.164000 80.834500 -104.500000 8.984550 -0.406207 -0.000000 9.924520 4.777520 0.911401 16.377300 -0.000001 -0.000001 4.996240 -1.349930 0.643437 6.456720 -0.000001 -0.000000 -0.067804 -3.843840 -3.221600 12.994200 -0.242716 4.980390 -88.352000 -3.831650 -66.706100 5.348090 -0.000007 -0.000001 -72.067500 27.869500 6.207350 24.328600 0.000019 0.000005 4.543240 6.148960 -36.569200 22.291600 -0.000001 0.000005 4.136050 5.525600 -7.602570 12.994500 -0.242716 -4.980390 89.935300 0.178241 -70.047400 -5.348130 -0.000001 -0.000004 -48.210600 28.464400 -40.453500 -24.328900 0.000322 -0.000009 0.420971 0.543160 -37.854500 -22.291500 -0.000108 -0.000004 5.493930 5.517880 -7.271840 -2.192480 -6.469440 -0.000000 -177.038000 -12.946000 -24.388700 39.081100 -0.000007 -0.000012 0.002274 -0.007590 16.677300 40.985400 -0.000006 -0.000013 3.126670 -3.583120 -58.317500 11.754300 -0.000000 0.000003 -0.003970 -0.051134 -18.656800 -2.192510 6.469440 -0.000001 179.325000 8.073680 -177.518000 -39.081100 -0.002282 -0.040193 0.024671 -0.041191 27.413800 -40.985400 0.000008 0.000006 5.568420 2.188180 -74.674500 -11.754300 -0.000006 -0.000006 -1.114400 -1.322100 -19.341700
0.000000 0.000000 0.000000 0.000000 0.000000 -0.000000 -6.499930 88.825200 -16.162400 87.382500 -8.185550 2.248450 15.735700 0.000005 -0.000001 109.028000 80.455200 -108.358000 8.984550 -0.406207 -0.000000 10.288400 6.197400 0.783473 16.377300 -0.000001 -0.000001 4.845120 -0.899015 0.468191 6.456720 -0.000001 -0.000000 -0.411452 -4.033730 -3.409600 12.994200 -0.242716 4.980390 -88.328600 -3.747580 -65.941700 5.348090 -0.000007 -0.000001 -72.019100 26.061200 8.445130 24.328600 0.000019 0.000005 4.560280 6.155370 -36.643900 22.291600 -0.000001 0.000005 4.219330 5.527020 -7.664710 12.994500 -0.242716 -4.980390 90.088900 -0.253700 -70.680500 -5.348130 -0.000001 -0.000004 -45.990200 27.343300 -44.594400 -24.328900 0.000322 -0.000009 0.284900 0.356058 -38.775200 -22.291500 -0.000108 -0.000004 5.663460 5.518620 -7.302960 -2.192480 -6.469440 -0.000000 -175.171000 -13.769000 -23.708900 39.081100 -0.000007 -0.000012 -0.000551 0.003787 8.272510 40.985400 -0.000006 -0.000013 3.530860 -2.605650 -58.876200 11.754300 -0.000000 0.000003 -0.004379 -0.055331 -18.827700 -2.192510 6.469440 -0.000001 178.915000 6.896820 -174.863000 -39.081100 -0.002282 -0.040193 0.019031 -0.029819 27.803500 -40.985400 0.000008 0.000006 5.547390 3.531420 -77.218400 -11.754300 -0.000006 -0.000006 -1.162580 -1.368480 -19.725400
0.000000 0.000000 0.000000 0.000000 0.000000 -0.000000 -6.025800 87.682500 -11.904600 86.959600 -10.634100 2.321870 15.735700 0.000005 -0.000001 111.845000 80.089600 -111.349000 8.984550 -0.406207 -0.000000 10.663500 7.335850 0.307753 16.377300 -0.000001 -0.000001 4.876380 -0.542301 0.361313 6.456720 -0.000001 -0.000000 -0.645720 -4.134540 -3.479850 12.994200 -0.242716 4.980390 -88.322800 -3.667240 -65.402200 5.348090 -0.000007 -0.000001 -71.765300 24.322800 10.093100 24.328600 0.000019 0.000005 4.376100 5.968950 -36.349200 22.291600 -0.000001 0.000005 4.343780 5.525810 -7.612060 12.994500 -0.242716 -4.980390 90.159300 -0.468733 -71.228800 -5.348130 -0.000001 -0.000004 -44.325900 26.227300 -47.830300 -24.328900 0.000322 -0.000009 0.048391 0.060321 -39.391000 -22.291500 -0.000108 -0.000004 5.853960 5.519340 -7.333700 -2.192480 -6.469440 -0.000000 -174.413000 -15.562800 -24.439500 39.081100 -0.000007 -0.000012 -0.000551 0.005648 5.569320 40.985400 -0.000006 -0.000013 2.371610 -3.108590 -59.163800 11.754300 -0.000000 0.000003 -0.004215 -0.053671 -18.760100 -2.192510 6.469440 -0.000001 177.454000 6.447710 -172.172000 -39.081100 -0.002282 -0.040193 -0.001664 0.009198 28.377000 -40.985400 0.000008 0.000006 5.387360 5.603930 -78.977000 -11.754300 -0.000006 -0.000006 -1.815150 -2.077370 -20.826200
0.000000 0.000000 0.000000 0.000000 0.000000 -0.000000 -5.352930 86.544700 -7.244690 86.975900 -12.529600 2.058150 15.735700 0.000005 -0.000001 113.956000 79.926200 -113.821000 8.984550 -0.406207 -0.000000 10.715300 8.126150 -0.493532 16.377300 -0.000001 -0.000001 5.067630 -0.244593 0.409550 6.456720 -0.000001 -0.000000 -0.724762 -4.242570 -3.418630 12.994200 -0.242716 4.980390 -88.388800 -3.450880 -64.953200 5.348090 -0.000007 -0.000001 -71.108500 23.251800 11.037700 24.328600 0.000019 0.000005 4.293860 5.993980 -35.716500 22.291600 -0.000001 0.000005 4.421590 5.524370 -7.549550 12.994500 -0.242716 -4.980390 90.173300 -0.519994 -71.568600 -5.348130 -0.000001 -0.000004 -43.432300 25.479600 -49.785500 -24.328900 0.000322 -0.000009 -0.050939 -0.059719 -39.829100 -22.291500 -0.000108 -0.000004 6.189490 5.520820 -7.396760 -2.192480 -6.469440 -0.000000 -174.612000 -16.921600 -26.542400 39.081100 -0.000007 -0.000012 0.001511 -0.009992 8.603690 40.985400 -0.000006 -0.000013 2.395880 -4.872400 -59.841000 11.754300 -0.000000 0.000003 -0.004453 -0.056084 -18.858400 -2.192510 6.469440 -0.000001 175.571000 5.475930 -170.307000 -39.081100 -0.002282 -0.040193 -0.034277 0.066189 29.586600 -40.985400 0.000008 0.000006 5.169980 6.973500 -78.705800 -11.754300 -0.000006 -0.000006 -3.540650 -3.778360 -23.878200
0.000000 0.000000 0.000000 0.000000 0.000000 -0.000000 -4.413210 85.771900 -2.502540 88.428900 -13.516900 1.021650 15.735700 0.000005 -0.000001 114.660000 80.259200 -115.380000 8.984550 -0.406207 -0.000000 10.063600 8.062590 -2.153270 16.377300 -0.000001 -0.000001 5.727320 0.012612 0.735850 6.456720 -0.000001 -0.000000 -1.201940 -4.224120 -3.461120 12.994200 -0.242716 4.980390 -88.739700 -2.698820 -64.956200 5.348090 -0.000007 -0.000001 -69.971000 21.606800 11.682600 24.328600 0.000019 0.000005 4.591240 6.608310 -34.907500 22.291600 -0.000001 0.000005 4.528370 5.522730 -7.478830 12.994500 -0.242716 -4.980390 89.944000 0.173292 -72.100000 -5.348130 -0.000001 -0.000004 -42.646400 25.090700 -50.280600 -24.328900 0.000322 -0.000009 -0.032599 -0.037213 -40.218500 -22.291500 -0.000108 -0.000004 6.294090 5.522960 -7.488830 -2.192480 -6.469440 -0.000000 -175.746000 -16.259200 -34.063100 39.081100 -0.000007 -0.000012 0.097168 -0.246608 21.505500 40.985400 -0.000006 -0.000013 -0.399160 -5.010900 -51.126400 11.754300 -0.000000 0.000003 -0.007462 -0.083592 -19.980200 -2.192510 6.469440 -0.000001 172.615000 4.211300 -170.119000 -39.081100 -0.002282 -0.040193 -0.037811 0.066931 31.558500 -40.985400 0.000008 0.000006 5.020350 7.204300 -77.175900 -11.754300 -0.000006 -0.000006 -1.363660 -1.410780 -26.441300
